<mxfile host="app.diagrams.net" modified="2023-06-06T07:24:41.313Z" agent="Mozilla/5.0 (Windows NT 10.0; Win64; x64) AppleWebKit/537.36 (KHTML, like Gecko) Chrome/114.0.0.0 Safari/537.36" etag="HTl-vLgr4CIeNmblMtJl" version="21.3.7" type="device">
  <diagram name="Page-1" id="iRDZbNr_hVu4dCF0drtU">
    <mxGraphModel dx="1050" dy="579" grid="1" gridSize="10" guides="1" tooltips="1" connect="1" arrows="1" fold="1" page="1" pageScale="1" pageWidth="850" pageHeight="1100" math="0" shadow="0">
      <root>
        <mxCell id="0" />
        <mxCell id="1" parent="0" />
        <mxCell id="p7UOe8ofVKwF_Qmdgzuu-1" value="User" style="swimlane;whiteSpace=wrap;html=1;startSize=30;labelBackgroundColor=none;fillColor=#182E3E;strokeColor=#FFFFFF;fontColor=#FFFFFF;fontSize=14;" vertex="1" parent="1">
          <mxGeometry x="120" y="120" width="200" height="110" as="geometry">
            <mxRectangle x="130" y="120" width="70" height="30" as="alternateBounds" />
          </mxGeometry>
        </mxCell>
        <mxCell id="p7UOe8ofVKwF_Qmdgzuu-6" value="" style="endArrow=none;html=1;rounded=0;exitX=0.5;exitY=1;exitDx=0;exitDy=0;labelBackgroundColor=none;strokeColor=#FFFFFF;fontColor=default;fillColor=#eeeeee;" edge="1" parent="p7UOe8ofVKwF_Qmdgzuu-1" source="p7UOe8ofVKwF_Qmdgzuu-1">
          <mxGeometry width="50" height="50" relative="1" as="geometry">
            <mxPoint x="90" y="120" as="sourcePoint" />
            <mxPoint x="100" y="30" as="targetPoint" />
          </mxGeometry>
        </mxCell>
        <mxCell id="p7UOe8ofVKwF_Qmdgzuu-7" value="" style="endArrow=none;html=1;rounded=0;labelBackgroundColor=none;strokeColor=#F5AC9A;fontColor=#EBDFCE;labelBorderColor=default;fillColor=#f5f5f5;" edge="1" parent="p7UOe8ofVKwF_Qmdgzuu-1">
          <mxGeometry width="50" height="50" relative="1" as="geometry">
            <mxPoint y="50" as="sourcePoint" />
            <mxPoint x="200" y="50" as="targetPoint" />
            <Array as="points">
              <mxPoint x="100" y="50" />
            </Array>
          </mxGeometry>
        </mxCell>
        <mxCell id="p7UOe8ofVKwF_Qmdgzuu-9" value="Type" style="text;html=1;align=center;verticalAlign=middle;resizable=0;points=[];autosize=1;strokeColor=none;fillColor=none;labelBackgroundColor=none;fontColor=#FFFFFF;fontStyle=2" vertex="1" parent="p7UOe8ofVKwF_Qmdgzuu-1">
          <mxGeometry x="120" y="28" width="50" height="30" as="geometry" />
        </mxCell>
        <mxCell id="p7UOe8ofVKwF_Qmdgzuu-8" value="Name" style="text;html=1;align=center;verticalAlign=middle;resizable=0;points=[];autosize=1;strokeColor=none;fillColor=none;labelBackgroundColor=none;fontColor=#FFFFFF;fontStyle=2" vertex="1" parent="p7UOe8ofVKwF_Qmdgzuu-1">
          <mxGeometry x="10" y="28" width="60" height="30" as="geometry" />
        </mxCell>
        <mxCell id="p7UOe8ofVKwF_Qmdgzuu-13" value="&lt;p style=&quot;line-height: 120%;&quot;&gt;&lt;font style=&quot;font-size: 15px;&quot;&gt;email&lt;/font&gt;&lt;/p&gt;" style="text;html=1;align=center;verticalAlign=middle;resizable=0;points=[];autosize=1;strokeColor=none;fillColor=none;fontColor=#FFFFFF;" vertex="1" parent="p7UOe8ofVKwF_Qmdgzuu-1">
          <mxGeometry x="20" y="40" width="60" height="50" as="geometry" />
        </mxCell>
        <mxCell id="p7UOe8ofVKwF_Qmdgzuu-14" value="password" style="text;html=1;align=center;verticalAlign=middle;resizable=0;points=[];autosize=1;strokeColor=none;fillColor=none;fontColor=#FFFFFF;fontSize=15;" vertex="1" parent="p7UOe8ofVKwF_Qmdgzuu-1">
          <mxGeometry x="5" y="80" width="90" height="30" as="geometry" />
        </mxCell>
        <mxCell id="p7UOe8ofVKwF_Qmdgzuu-16" value="string" style="text;html=1;align=center;verticalAlign=middle;resizable=0;points=[];autosize=1;strokeColor=none;fillColor=none;fontColor=#FFFFFF;fontSize=14;" vertex="1" parent="p7UOe8ofVKwF_Qmdgzuu-1">
          <mxGeometry x="110" y="80" width="60" height="30" as="geometry" />
        </mxCell>
        <mxCell id="p7UOe8ofVKwF_Qmdgzuu-12" value="" style="endArrow=none;html=1;rounded=0;strokeColor=#E8E1E2;" edge="1" parent="p7UOe8ofVKwF_Qmdgzuu-1">
          <mxGeometry width="50" height="50" relative="1" as="geometry">
            <mxPoint y="79" as="sourcePoint" />
            <mxPoint x="200" y="79" as="targetPoint" />
          </mxGeometry>
        </mxCell>
        <mxCell id="p7UOe8ofVKwF_Qmdgzuu-15" value="string" style="text;html=1;align=center;verticalAlign=middle;resizable=0;points=[];autosize=1;strokeColor=none;fillColor=none;fontColor=#FFFFFF;fontSize=14;" vertex="1" parent="p7UOe8ofVKwF_Qmdgzuu-1">
          <mxGeometry x="110" y="50" width="60" height="30" as="geometry" />
        </mxCell>
        <mxCell id="p7UOe8ofVKwF_Qmdgzuu-83" style="edgeStyle=orthogonalEdgeStyle;rounded=0;orthogonalLoop=1;jettySize=auto;html=1;exitX=0;exitY=0.75;exitDx=0;exitDy=0;entryX=1.002;entryY=0.184;entryDx=0;entryDy=0;entryPerimeter=0;strokeColor=#FCFCFC;" edge="1" parent="1" source="p7UOe8ofVKwF_Qmdgzuu-2" target="p7UOe8ofVKwF_Qmdgzuu-1">
          <mxGeometry relative="1" as="geometry">
            <Array as="points">
              <mxPoint x="440" y="248" />
              <mxPoint x="440" y="140" />
            </Array>
          </mxGeometry>
        </mxCell>
        <mxCell id="p7UOe8ofVKwF_Qmdgzuu-2" value="Ticket" style="swimlane;whiteSpace=wrap;html=1;labelBackgroundColor=none;fillColor=#182E3E;strokeColor=#FFFFFF;fontColor=#FFFFFF;startSize=30;fontSize=14;" vertex="1" parent="1">
          <mxGeometry x="580" y="120" width="200" height="170" as="geometry" />
        </mxCell>
        <mxCell id="p7UOe8ofVKwF_Qmdgzuu-25" value="" style="endArrow=none;html=1;rounded=0;strokeColor=#F7F7F7;entryX=1;entryY=0.25;entryDx=0;entryDy=0;exitX=0;exitY=0.25;exitDx=0;exitDy=0;" edge="1" parent="p7UOe8ofVKwF_Qmdgzuu-2">
          <mxGeometry width="50" height="50" relative="1" as="geometry">
            <mxPoint y="80" as="sourcePoint" />
            <mxPoint x="200" y="80" as="targetPoint" />
            <Array as="points">
              <mxPoint x="100" y="80" />
            </Array>
          </mxGeometry>
        </mxCell>
        <mxCell id="p7UOe8ofVKwF_Qmdgzuu-28" value="" style="endArrow=none;html=1;rounded=0;strokeColor=#F7F7F7;entryX=1;entryY=0.25;entryDx=0;entryDy=0;exitX=0;exitY=0.25;exitDx=0;exitDy=0;" edge="1" parent="p7UOe8ofVKwF_Qmdgzuu-2">
          <mxGeometry width="50" height="50" relative="1" as="geometry">
            <mxPoint y="110" as="sourcePoint" />
            <mxPoint x="200" y="110" as="targetPoint" />
            <Array as="points">
              <mxPoint x="100" y="110" />
            </Array>
          </mxGeometry>
        </mxCell>
        <mxCell id="p7UOe8ofVKwF_Qmdgzuu-29" value="" style="endArrow=none;html=1;rounded=0;strokeColor=#F7F7F7;entryX=1;entryY=0.25;entryDx=0;entryDy=0;exitX=0;exitY=0.25;exitDx=0;exitDy=0;" edge="1" parent="p7UOe8ofVKwF_Qmdgzuu-2">
          <mxGeometry width="50" height="50" relative="1" as="geometry">
            <mxPoint y="140" as="sourcePoint" />
            <mxPoint x="200" y="140" as="targetPoint" />
            <Array as="points">
              <mxPoint x="100" y="140" />
            </Array>
          </mxGeometry>
        </mxCell>
        <mxCell id="p7UOe8ofVKwF_Qmdgzuu-30" value="" style="endArrow=none;html=1;rounded=0;strokeColor=#F7F7F7;exitX=0.5;exitY=1;exitDx=0;exitDy=0;" edge="1" parent="p7UOe8ofVKwF_Qmdgzuu-2" source="p7UOe8ofVKwF_Qmdgzuu-2">
          <mxGeometry width="50" height="50" relative="1" as="geometry">
            <mxPoint x="10" y="150" as="sourcePoint" />
            <mxPoint x="100" y="30" as="targetPoint" />
            <Array as="points" />
          </mxGeometry>
        </mxCell>
        <mxCell id="p7UOe8ofVKwF_Qmdgzuu-52" value="title" style="text;html=1;align=center;verticalAlign=middle;resizable=0;points=[];autosize=1;strokeColor=none;fillColor=none;fontColor=#FFFFFF;fontSize=14;" vertex="1" parent="p7UOe8ofVKwF_Qmdgzuu-2">
          <mxGeometry x="20" y="50" width="50" height="30" as="geometry" />
        </mxCell>
        <mxCell id="p7UOe8ofVKwF_Qmdgzuu-53" value="price" style="text;html=1;align=center;verticalAlign=middle;resizable=0;points=[];autosize=1;strokeColor=none;fillColor=none;fontColor=#FFFFFF;fontSize=14;" vertex="1" parent="p7UOe8ofVKwF_Qmdgzuu-2">
          <mxGeometry x="20" y="80" width="50" height="30" as="geometry" />
        </mxCell>
        <mxCell id="p7UOe8ofVKwF_Qmdgzuu-54" value="userId" style="text;html=1;align=center;verticalAlign=middle;resizable=0;points=[];autosize=1;strokeColor=none;fillColor=none;fontColor=#FFFFFF;fontSize=14;" vertex="1" parent="p7UOe8ofVKwF_Qmdgzuu-2">
          <mxGeometry x="15" y="108" width="60" height="30" as="geometry" />
        </mxCell>
        <mxCell id="p7UOe8ofVKwF_Qmdgzuu-55" value="orderId" style="text;html=1;align=center;verticalAlign=middle;resizable=0;points=[];autosize=1;strokeColor=none;fillColor=none;fontColor=#FFFFFF;fontSize=14;" vertex="1" parent="p7UOe8ofVKwF_Qmdgzuu-2">
          <mxGeometry x="10" y="138" width="70" height="30" as="geometry" />
        </mxCell>
        <mxCell id="p7UOe8ofVKwF_Qmdgzuu-61" value="string" style="text;html=1;align=center;verticalAlign=middle;resizable=0;points=[];autosize=1;strokeColor=none;fillColor=none;fontColor=#FFFFFF;fontSize=14;" vertex="1" parent="p7UOe8ofVKwF_Qmdgzuu-2">
          <mxGeometry x="120" y="50" width="60" height="30" as="geometry" />
        </mxCell>
        <mxCell id="p7UOe8ofVKwF_Qmdgzuu-62" value="number" style="text;html=1;align=center;verticalAlign=middle;resizable=0;points=[];autosize=1;strokeColor=none;fillColor=none;fontColor=#FFFFFF;fontSize=14;" vertex="1" parent="p7UOe8ofVKwF_Qmdgzuu-2">
          <mxGeometry x="115" y="78" width="70" height="30" as="geometry" />
        </mxCell>
        <mxCell id="p7UOe8ofVKwF_Qmdgzuu-63" value="ref to user" style="text;html=1;align=center;verticalAlign=middle;resizable=0;points=[];autosize=1;strokeColor=none;fillColor=none;fontColor=#FFFFFF;fontSize=14;" vertex="1" parent="p7UOe8ofVKwF_Qmdgzuu-2">
          <mxGeometry x="105" y="108" width="90" height="30" as="geometry" />
        </mxCell>
        <mxCell id="p7UOe8ofVKwF_Qmdgzuu-64" value="ref to order" style="text;html=1;align=center;verticalAlign=middle;resizable=0;points=[];autosize=1;strokeColor=none;fillColor=none;fontColor=#FFFFFF;fontSize=14;" vertex="1" parent="p7UOe8ofVKwF_Qmdgzuu-2">
          <mxGeometry x="105" y="138" width="90" height="30" as="geometry" />
        </mxCell>
        <mxCell id="p7UOe8ofVKwF_Qmdgzuu-3" value="Order" style="swimlane;whiteSpace=wrap;html=1;labelBackgroundColor=none;fillColor=#182E3E;strokeColor=#FFFFFF;fontColor=#FFFFFF;startSize=30;fontSize=14;" vertex="1" parent="1">
          <mxGeometry x="120" y="290" width="210" height="170" as="geometry" />
        </mxCell>
        <mxCell id="p7UOe8ofVKwF_Qmdgzuu-11" value="" style="endArrow=none;html=1;rounded=0;strokeColor=#F5AC9A;" edge="1" parent="p7UOe8ofVKwF_Qmdgzuu-3">
          <mxGeometry width="50" height="50" relative="1" as="geometry">
            <mxPoint y="50" as="sourcePoint" />
            <mxPoint x="210" y="50" as="targetPoint" />
          </mxGeometry>
        </mxCell>
        <mxCell id="p7UOe8ofVKwF_Qmdgzuu-17" value="" style="endArrow=none;html=1;rounded=0;strokeColor=#FFFFFF;" edge="1" parent="p7UOe8ofVKwF_Qmdgzuu-3">
          <mxGeometry width="50" height="50" relative="1" as="geometry">
            <mxPoint x="100" y="170" as="sourcePoint" />
            <mxPoint x="100" y="30" as="targetPoint" />
          </mxGeometry>
        </mxCell>
        <mxCell id="p7UOe8ofVKwF_Qmdgzuu-18" value="Name" style="text;html=1;align=center;verticalAlign=middle;resizable=0;points=[];autosize=1;strokeColor=none;fillColor=none;fontColor=#FFFFFF;fontStyle=2" vertex="1" parent="p7UOe8ofVKwF_Qmdgzuu-3">
          <mxGeometry x="13" y="28" width="60" height="30" as="geometry" />
        </mxCell>
        <mxCell id="p7UOe8ofVKwF_Qmdgzuu-21" value="" style="endArrow=none;html=1;rounded=0;strokeColor=#F2F2F2;fontColor=#F0F0F0;" edge="1" parent="p7UOe8ofVKwF_Qmdgzuu-3">
          <mxGeometry width="50" height="50" relative="1" as="geometry">
            <mxPoint y="80" as="sourcePoint" />
            <mxPoint x="210" y="80" as="targetPoint" />
          </mxGeometry>
        </mxCell>
        <mxCell id="p7UOe8ofVKwF_Qmdgzuu-20" value="" style="endArrow=none;html=1;rounded=0;strokeColor=#FCFAFA;" edge="1" parent="p7UOe8ofVKwF_Qmdgzuu-3">
          <mxGeometry width="50" height="50" relative="1" as="geometry">
            <mxPoint y="110" as="sourcePoint" />
            <mxPoint x="210" y="110" as="targetPoint" />
          </mxGeometry>
        </mxCell>
        <mxCell id="p7UOe8ofVKwF_Qmdgzuu-22" value="" style="endArrow=none;html=1;rounded=0;strokeColor=#FCFCFC;" edge="1" parent="p7UOe8ofVKwF_Qmdgzuu-3">
          <mxGeometry width="50" height="50" relative="1" as="geometry">
            <mxPoint y="140" as="sourcePoint" />
            <mxPoint x="210" y="140" as="targetPoint" />
          </mxGeometry>
        </mxCell>
        <mxCell id="p7UOe8ofVKwF_Qmdgzuu-42" value="userId" style="text;html=1;align=center;verticalAlign=middle;resizable=0;points=[];autosize=1;strokeColor=none;fillColor=none;fontColor=#FFFFFF;fontSize=14;" vertex="1" parent="p7UOe8ofVKwF_Qmdgzuu-3">
          <mxGeometry x="13" y="50" width="60" height="30" as="geometry" />
        </mxCell>
        <mxCell id="p7UOe8ofVKwF_Qmdgzuu-43" value="status" style="text;html=1;align=center;verticalAlign=middle;resizable=0;points=[];autosize=1;strokeColor=none;fillColor=none;fontColor=#FFFFFF;fontSize=14;" vertex="1" parent="p7UOe8ofVKwF_Qmdgzuu-3">
          <mxGeometry x="13" y="80" width="60" height="30" as="geometry" />
        </mxCell>
        <mxCell id="p7UOe8ofVKwF_Qmdgzuu-44" value="ticketId" style="text;html=1;align=center;verticalAlign=middle;resizable=0;points=[];autosize=1;strokeColor=none;fillColor=none;fontColor=#FFFFFF;fontSize=14;" vertex="1" parent="p7UOe8ofVKwF_Qmdgzuu-3">
          <mxGeometry x="8" y="110" width="70" height="30" as="geometry" />
        </mxCell>
        <mxCell id="p7UOe8ofVKwF_Qmdgzuu-45" value="expiresAt" style="text;html=1;align=center;verticalAlign=middle;resizable=0;points=[];autosize=1;strokeColor=none;fillColor=none;fontColor=#FFFFFF;fontSize=14;" vertex="1" parent="p7UOe8ofVKwF_Qmdgzuu-3">
          <mxGeometry x="3" y="138" width="80" height="30" as="geometry" />
        </mxCell>
        <mxCell id="p7UOe8ofVKwF_Qmdgzuu-46" value="ref to user" style="text;html=1;align=center;verticalAlign=middle;resizable=0;points=[];autosize=1;strokeColor=none;fillColor=none;fontColor=#FFFFFF;fontSize=14;" vertex="1" parent="p7UOe8ofVKwF_Qmdgzuu-3">
          <mxGeometry x="105" y="50" width="90" height="30" as="geometry" />
        </mxCell>
        <mxCell id="p7UOe8ofVKwF_Qmdgzuu-47" value="ref to ticket" style="text;html=1;align=center;verticalAlign=middle;resizable=0;points=[];autosize=1;strokeColor=none;fillColor=none;fontColor=#FFFFFF;fontSize=14;" vertex="1" parent="p7UOe8ofVKwF_Qmdgzuu-3">
          <mxGeometry x="110" y="110" width="90" height="30" as="geometry" />
        </mxCell>
        <mxCell id="p7UOe8ofVKwF_Qmdgzuu-48" value="date" style="text;html=1;align=center;verticalAlign=middle;resizable=0;points=[];autosize=1;strokeColor=none;fillColor=none;fontColor=#FFFFFF;fontSize=14;" vertex="1" parent="p7UOe8ofVKwF_Qmdgzuu-3">
          <mxGeometry x="125" y="138" width="50" height="30" as="geometry" />
        </mxCell>
        <mxCell id="p7UOe8ofVKwF_Qmdgzuu-19" value="Type" style="text;html=1;align=center;verticalAlign=middle;resizable=0;points=[];autosize=1;strokeColor=none;fillColor=none;fontColor=#FFFFFF;fontStyle=2" vertex="1" parent="p7UOe8ofVKwF_Qmdgzuu-3">
          <mxGeometry x="130" y="28" width="50" height="30" as="geometry" />
        </mxCell>
        <mxCell id="p7UOe8ofVKwF_Qmdgzuu-58" value="OrderStatusType" style="text;html=1;align=center;verticalAlign=middle;resizable=0;points=[];autosize=1;strokeColor=none;fillColor=none;fontColor=#FFFFFF;" vertex="1" parent="p7UOe8ofVKwF_Qmdgzuu-3">
          <mxGeometry x="100" y="80" width="110" height="30" as="geometry" />
        </mxCell>
        <mxCell id="p7UOe8ofVKwF_Qmdgzuu-4" value="Charge" style="swimlane;whiteSpace=wrap;html=1;labelBackgroundColor=none;fillColor=#182E3E;strokeColor=#FFFFFF;fontColor=#FFFFFF;startSize=30;fontSize=14;" vertex="1" parent="1">
          <mxGeometry x="590" y="350" width="210" height="200" as="geometry" />
        </mxCell>
        <mxCell id="p7UOe8ofVKwF_Qmdgzuu-31" value="" style="endArrow=none;html=1;rounded=0;strokeColor=#F5AC9A;" edge="1" parent="p7UOe8ofVKwF_Qmdgzuu-4">
          <mxGeometry width="50" height="50" relative="1" as="geometry">
            <mxPoint y="50" as="sourcePoint" />
            <mxPoint x="210" y="50" as="targetPoint" />
          </mxGeometry>
        </mxCell>
        <mxCell id="p7UOe8ofVKwF_Qmdgzuu-34" value="" style="endArrow=none;html=1;rounded=0;strokeColor=#FCFCFC;exitX=0.984;exitY=0.967;exitDx=0;exitDy=0;exitPerimeter=0;" edge="1" parent="p7UOe8ofVKwF_Qmdgzuu-4" source="p7UOe8ofVKwF_Qmdgzuu-71">
          <mxGeometry width="50" height="50" relative="1" as="geometry">
            <mxPoint x="10" y="60" as="sourcePoint" />
            <mxPoint x="103" y="30" as="targetPoint" />
          </mxGeometry>
        </mxCell>
        <mxCell id="p7UOe8ofVKwF_Qmdgzuu-38" value="" style="endArrow=none;html=1;rounded=0;strokeColor=#FCFCFC;" edge="1" parent="p7UOe8ofVKwF_Qmdgzuu-4">
          <mxGeometry width="50" height="50" relative="1" as="geometry">
            <mxPoint y="80" as="sourcePoint" />
            <mxPoint x="210" y="80" as="targetPoint" />
          </mxGeometry>
        </mxCell>
        <mxCell id="p7UOe8ofVKwF_Qmdgzuu-39" value="" style="endArrow=none;html=1;rounded=0;strokeColor=#FCFCFC;" edge="1" parent="p7UOe8ofVKwF_Qmdgzuu-4">
          <mxGeometry width="50" height="50" relative="1" as="geometry">
            <mxPoint y="110" as="sourcePoint" />
            <mxPoint x="210" y="110" as="targetPoint" />
          </mxGeometry>
        </mxCell>
        <mxCell id="p7UOe8ofVKwF_Qmdgzuu-40" value="" style="endArrow=none;html=1;rounded=0;strokeColor=#FCFCFC;" edge="1" parent="p7UOe8ofVKwF_Qmdgzuu-4">
          <mxGeometry width="50" height="50" relative="1" as="geometry">
            <mxPoint y="140" as="sourcePoint" />
            <mxPoint x="210" y="140" as="targetPoint" />
          </mxGeometry>
        </mxCell>
        <mxCell id="p7UOe8ofVKwF_Qmdgzuu-41" value="" style="endArrow=none;html=1;rounded=0;strokeColor=#FCFCFC;" edge="1" parent="p7UOe8ofVKwF_Qmdgzuu-4">
          <mxGeometry width="50" height="50" relative="1" as="geometry">
            <mxPoint y="170" as="sourcePoint" />
            <mxPoint x="210" y="170" as="targetPoint" />
          </mxGeometry>
        </mxCell>
        <mxCell id="p7UOe8ofVKwF_Qmdgzuu-68" value="status" style="text;html=1;align=center;verticalAlign=middle;resizable=0;points=[];autosize=1;strokeColor=none;fillColor=none;fontColor=#FFFFFF;fontSize=14;" vertex="1" parent="p7UOe8ofVKwF_Qmdgzuu-4">
          <mxGeometry x="20" y="80" width="60" height="30" as="geometry" />
        </mxCell>
        <mxCell id="p7UOe8ofVKwF_Qmdgzuu-69" value="amount" style="text;html=1;align=center;verticalAlign=middle;resizable=0;points=[];autosize=1;strokeColor=none;fillColor=none;fontColor=#FFFFFF;fontSize=14;" vertex="1" parent="p7UOe8ofVKwF_Qmdgzuu-4">
          <mxGeometry x="15" y="110" width="70" height="30" as="geometry" />
        </mxCell>
        <mxCell id="p7UOe8ofVKwF_Qmdgzuu-70" value="stripeId" style="text;html=1;align=center;verticalAlign=middle;resizable=0;points=[];autosize=1;strokeColor=none;fillColor=none;fontColor=#FFFFFF;fontSize=14;" vertex="1" parent="p7UOe8ofVKwF_Qmdgzuu-4">
          <mxGeometry x="15" y="140" width="70" height="30" as="geometry" />
        </mxCell>
        <mxCell id="p7UOe8ofVKwF_Qmdgzuu-71" value="stripeRefundId" style="text;html=1;align=center;verticalAlign=middle;resizable=0;points=[];autosize=1;strokeColor=none;fillColor=none;fontColor=#FFFFFF;fontSize=14;" vertex="1" parent="p7UOe8ofVKwF_Qmdgzuu-4">
          <mxGeometry x="-5" y="170" width="110" height="30" as="geometry" />
        </mxCell>
        <mxCell id="p7UOe8ofVKwF_Qmdgzuu-72" value="ref to order" style="text;html=1;align=center;verticalAlign=middle;resizable=0;points=[];autosize=1;strokeColor=none;fillColor=none;fontColor=#FFFFFF;fontSize=14;" vertex="1" parent="p7UOe8ofVKwF_Qmdgzuu-4">
          <mxGeometry x="100" y="50" width="90" height="30" as="geometry" />
        </mxCell>
        <mxCell id="p7UOe8ofVKwF_Qmdgzuu-73" value="number" style="text;html=1;align=center;verticalAlign=middle;resizable=0;points=[];autosize=1;strokeColor=none;fillColor=none;fontColor=#FFFFFF;fontSize=14;" vertex="1" parent="p7UOe8ofVKwF_Qmdgzuu-4">
          <mxGeometry x="110" y="110" width="70" height="30" as="geometry" />
        </mxCell>
        <mxCell id="p7UOe8ofVKwF_Qmdgzuu-74" value="string" style="text;html=1;align=center;verticalAlign=middle;resizable=0;points=[];autosize=1;strokeColor=none;fillColor=none;fontColor=#FFFFFF;fontSize=14;" vertex="1" parent="p7UOe8ofVKwF_Qmdgzuu-4">
          <mxGeometry x="115" y="140" width="60" height="30" as="geometry" />
        </mxCell>
        <mxCell id="p7UOe8ofVKwF_Qmdgzuu-77" value="ChargeStatusType" style="text;html=1;align=center;verticalAlign=middle;resizable=0;points=[];autosize=1;strokeColor=none;fillColor=none;fontColor=#FFFFFF;fontSize=12;" vertex="1" parent="p7UOe8ofVKwF_Qmdgzuu-4">
          <mxGeometry x="98" y="80" width="120" height="30" as="geometry" />
        </mxCell>
        <mxCell id="p7UOe8ofVKwF_Qmdgzuu-75" value="string" style="text;html=1;align=center;verticalAlign=middle;resizable=0;points=[];autosize=1;strokeColor=none;fillColor=none;fontColor=#FFFFFF;fontSize=14;" vertex="1" parent="p7UOe8ofVKwF_Qmdgzuu-4">
          <mxGeometry x="115" y="170" width="60" height="30" as="geometry" />
        </mxCell>
        <mxCell id="p7UOe8ofVKwF_Qmdgzuu-24" value="" style="endArrow=none;html=1;rounded=0;strokeColor=#F5AC9A;" edge="1" parent="1">
          <mxGeometry width="50" height="50" relative="1" as="geometry">
            <mxPoint x="580" y="170" as="sourcePoint" />
            <mxPoint x="780" y="170" as="targetPoint" />
          </mxGeometry>
        </mxCell>
        <mxCell id="p7UOe8ofVKwF_Qmdgzuu-49" value="OrderStatusType - created / canceled / &lt;br&gt;awaiting payment /&amp;nbsp; completed" style="text;html=1;align=center;verticalAlign=middle;resizable=0;points=[];autosize=1;strokeColor=none;fillColor=none;fontColor=#392BFF;" vertex="1" parent="1">
          <mxGeometry x="110" y="470" width="230" height="40" as="geometry" />
        </mxCell>
        <mxCell id="p7UOe8ofVKwF_Qmdgzuu-50" value="Name" style="text;html=1;align=center;verticalAlign=middle;resizable=0;points=[];autosize=1;strokeColor=none;fillColor=none;fontColor=#FFFFFF;fontStyle=2" vertex="1" parent="1">
          <mxGeometry x="600" y="148" width="60" height="30" as="geometry" />
        </mxCell>
        <mxCell id="p7UOe8ofVKwF_Qmdgzuu-51" value="Type" style="text;html=1;align=center;verticalAlign=middle;resizable=0;points=[];autosize=1;strokeColor=none;fillColor=none;fontColor=#FFFFFF;fontStyle=2" vertex="1" parent="1">
          <mxGeometry x="705" y="148" width="50" height="30" as="geometry" />
        </mxCell>
        <mxCell id="p7UOe8ofVKwF_Qmdgzuu-65" value="Name" style="text;html=1;align=center;verticalAlign=middle;resizable=0;points=[];autosize=1;strokeColor=none;fillColor=none;fontColor=#FFFFFF;fontStyle=2" vertex="1" parent="1">
          <mxGeometry x="610" y="378" width="60" height="30" as="geometry" />
        </mxCell>
        <mxCell id="p7UOe8ofVKwF_Qmdgzuu-66" value="Type" style="text;html=1;align=center;verticalAlign=middle;resizable=0;points=[];autosize=1;strokeColor=none;fillColor=none;fontColor=#FFFFFF;fontStyle=2" vertex="1" parent="1">
          <mxGeometry x="705" y="378" width="50" height="30" as="geometry" />
        </mxCell>
        <mxCell id="p7UOe8ofVKwF_Qmdgzuu-67" value="orderId" style="text;html=1;align=center;verticalAlign=middle;resizable=0;points=[];autosize=1;strokeColor=none;fillColor=none;fontColor=#FFFFFF;fontSize=14;" vertex="1" parent="1">
          <mxGeometry x="605" y="400" width="70" height="30" as="geometry" />
        </mxCell>
        <mxCell id="p7UOe8ofVKwF_Qmdgzuu-76" value="ChargeStatusType - created / failed / &lt;br&gt;completed" style="text;html=1;align=center;verticalAlign=middle;resizable=0;points=[];autosize=1;strokeColor=none;fillColor=none;fontColor=#392BFF;" vertex="1" parent="1">
          <mxGeometry x="580" y="560" width="220" height="40" as="geometry" />
        </mxCell>
        <mxCell id="p7UOe8ofVKwF_Qmdgzuu-78" value="" style="endArrow=classic;html=1;rounded=0;strokeColor=#FAE8EC;entryX=-0.006;entryY=0.176;entryDx=0;entryDy=0;entryPerimeter=0;fontColor=#F0EBED;" edge="1" parent="1" target="p7UOe8ofVKwF_Qmdgzuu-1">
          <mxGeometry width="50" height="50" relative="1" as="geometry">
            <mxPoint x="120" y="360" as="sourcePoint" />
            <mxPoint x="70" y="100" as="targetPoint" />
            <Array as="points">
              <mxPoint x="70" y="360" />
              <mxPoint x="70" y="140" />
            </Array>
          </mxGeometry>
        </mxCell>
        <mxCell id="p7UOe8ofVKwF_Qmdgzuu-79" value="" style="endArrow=classic;html=1;rounded=0;strokeColor=#FFFFFF;" edge="1" parent="1">
          <mxGeometry width="50" height="50" relative="1" as="geometry">
            <mxPoint x="330" y="420" as="sourcePoint" />
            <mxPoint x="580" y="140" as="targetPoint" />
            <Array as="points">
              <mxPoint x="450" y="420" />
              <mxPoint x="450" y="140" />
            </Array>
          </mxGeometry>
        </mxCell>
        <mxCell id="p7UOe8ofVKwF_Qmdgzuu-80" value="" style="endArrow=classic;html=1;rounded=0;strokeColor=#FCFCFC;entryX=1.011;entryY=0.107;entryDx=0;entryDy=0;entryPerimeter=0;" edge="1" parent="1" target="p7UOe8ofVKwF_Qmdgzuu-3">
          <mxGeometry width="50" height="50" relative="1" as="geometry">
            <mxPoint x="590" y="420" as="sourcePoint" />
            <mxPoint x="570" y="368" as="targetPoint" />
            <Array as="points">
              <mxPoint x="460" y="420" />
              <mxPoint x="460" y="310" />
            </Array>
          </mxGeometry>
        </mxCell>
        <mxCell id="p7UOe8ofVKwF_Qmdgzuu-82" value="" style="endArrow=none;html=1;rounded=0;strokeColor=#FAFAFA;" edge="1" parent="1">
          <mxGeometry width="50" height="50" relative="1" as="geometry">
            <mxPoint x="460" y="310" as="sourcePoint" />
            <mxPoint x="580" y="280" as="targetPoint" />
            <Array as="points">
              <mxPoint x="520" y="310" />
              <mxPoint x="520" y="280" />
            </Array>
          </mxGeometry>
        </mxCell>
      </root>
    </mxGraphModel>
  </diagram>
</mxfile>
